<svg xmlns="http://www.w3.org/2000/svg" width="1200" height="500" viewBox="0 0 1200 500" role="img" aria-labelledby="title desc">
<title id="title">Krishna Sai Channalli — 3D profile identity</title><desc id="desc">Krishna Sai Channalli — 3D profile identity. Dimensional SVG designed for GitHub README rendering.</desc>
<defs>
<linearGradient id="bg"><stop stop-color="#02050a"/><stop offset=".55" stop-color="#071522"/><stop offset="1" stop-color="#02040a"/></linearGradient>
<linearGradient id="face" x2="0" y2="1"><stop stop-color="#fff"/><stop offset=".45" stop-color="#b7f6ff"/><stop offset="1" stop-color="#257da7"/></linearGradient>
<linearGradient id="edge"><stop stop-color="#52e7ff" stop-opacity="0"/><stop offset=".5" stop-color="#e7ffff"/><stop offset="1" stop-color="#8b7dff" stop-opacity="0"/></linearGradient>
<radialGradient id="glow"><stop stop-color="#bdfbff" stop-opacity=".9"/><stop offset=".35" stop-color="#48dfff" stop-opacity=".4"/><stop offset="1" stop-color="#15527c" stop-opacity="0"/></radialGradient>
<pattern id="scan" width="8" height="8" patternUnits="userSpaceOnUse"><path d="M0 .5H8" stroke="#d6faff" stroke-opacity=".025"/></pattern>
</defs><rect width="1200" height="500" rx="20" fill="url(#bg)"/><rect width="1200" height="500" rx="20" fill="url(#scan)"/><circle cx="20" cy="18" r="1.0" fill="#d7fbff" opacity="0.16"/><circle cx="103" cy="65" r="1.4" fill="#d7fbff" opacity="0.22"/><circle cx="186" cy="112" r="1.7" fill="#d7fbff" opacity="0.28"/><circle cx="269" cy="159" r="1.0" fill="#d7fbff" opacity="0.34"/><circle cx="352" cy="206" r="1.4" fill="#d7fbff" opacity="0.40"/><circle cx="435" cy="253" r="1.7" fill="#d7fbff" opacity="0.46"/><circle cx="518" cy="300" r="1.0" fill="#d7fbff" opacity="0.16"/><circle cx="601" cy="347" r="1.4" fill="#d7fbff" opacity="0.22"/><circle cx="684" cy="394" r="1.7" fill="#d7fbff" opacity="0.28"/><circle cx="767" cy="441" r="1.0" fill="#d7fbff" opacity="0.34"/><circle cx="850" cy="24" r="1.4" fill="#d7fbff" opacity="0.40"/><circle cx="933" cy="71" r="1.7" fill="#d7fbff" opacity="0.46"/><circle cx="1016" cy="118" r="1.0" fill="#d7fbff" opacity="0.16"/><circle cx="1099" cy="165" r="1.4" fill="#d7fbff" opacity="0.22"/><circle cx="22" cy="212" r="1.7" fill="#d7fbff" opacity="0.28"/><circle cx="105" cy="259" r="1.0" fill="#d7fbff" opacity="0.34"/><circle cx="188" cy="306" r="1.4" fill="#d7fbff" opacity="0.40"/><circle cx="271" cy="353" r="1.7" fill="#d7fbff" opacity="0.46"/><circle cx="354" cy="400" r="1.0" fill="#d7fbff" opacity="0.16"/><circle cx="437" cy="447" r="1.4" fill="#d7fbff" opacity="0.22"/><circle cx="520" cy="30" r="1.7" fill="#d7fbff" opacity="0.28"/><circle cx="603" cy="77" r="1.0" fill="#d7fbff" opacity="0.34"/><circle cx="686" cy="124" r="1.4" fill="#d7fbff" opacity="0.40"/><circle cx="769" cy="171" r="1.7" fill="#d7fbff" opacity="0.46"/><circle cx="852" cy="218" r="1.0" fill="#d7fbff" opacity="0.16"/><circle cx="935" cy="265" r="1.4" fill="#d7fbff" opacity="0.22"/><circle cx="1018" cy="312" r="1.7" fill="#d7fbff" opacity="0.28"/><circle cx="1101" cy="359" r="1.0" fill="#d7fbff" opacity="0.34"/><circle cx="24" cy="406" r="1.4" fill="#d7fbff" opacity="0.40"/><circle cx="107" cy="453" r="1.7" fill="#d7fbff" opacity="0.46"/><circle cx="190" cy="36" r="1.0" fill="#d7fbff" opacity="0.16"/><circle cx="273" cy="83" r="1.4" fill="#d7fbff" opacity="0.22"/><circle cx="356" cy="130" r="1.7" fill="#d7fbff" opacity="0.28"/><circle cx="439" cy="177" r="1.0" fill="#d7fbff" opacity="0.34"/><circle cx="522" cy="224" r="1.4" fill="#d7fbff" opacity="0.40"/><circle cx="605" cy="271" r="1.7" fill="#d7fbff" opacity="0.46"/><circle cx="688" cy="318" r="1.0" fill="#d7fbff" opacity="0.16"/><circle cx="771" cy="365" r="1.4" fill="#d7fbff" opacity="0.22"/><circle cx="854" cy="412" r="1.7" fill="#d7fbff" opacity="0.28"/><circle cx="937" cy="459" r="1.0" fill="#d7fbff" opacity="0.34"/><circle cx="1020" cy="42" r="1.4" fill="#d7fbff" opacity="0.40"/><circle cx="1103" cy="89" r="1.7" fill="#d7fbff" opacity="0.46"/><circle cx="26" cy="136" r="1.0" fill="#d7fbff" opacity="0.16"/><circle cx="109" cy="183" r="1.4" fill="#d7fbff" opacity="0.22"/><circle cx="192" cy="230" r="1.7" fill="#d7fbff" opacity="0.28"/><path d="M70 110H1130M140 400H1060" stroke="#55e7ff" stroke-opacity=".16"/><path d="M220 430L600 120L980 430M330 430L600 205L870 430" fill="none" stroke="#55e7ff" stroke-opacity=".08"/><ellipse cx="600" cy="230" rx="280" ry="105" fill="none" stroke="url(#edge)" stroke-width="1.5" stroke-dasharray="18 11"/><ellipse cx="600" cy="230" rx="190" ry="145" fill="none" stroke="#67eaff" stroke-opacity=".18" transform="rotate(-25 600 230)"/><circle cx="600" cy="230" r="135" fill="url(#glow)" opacity=".42"/><circle cx="600" cy="230" r="74" fill="none" stroke="#9df6ff" stroke-opacity=".42"/><circle cx="600" cy="230" r="48" fill="#061a29" stroke="#9df6ff" stroke-opacity=".72"/><circle cx="600" cy="230" r="13" fill="#dffeff"/><text x="62" y="58" fill="#7feeff" font-family="monospace" font-size="12" letter-spacing="3">PERSONAL ENGINEERING PROFILE</text><text x="1138" y="58" fill="#7896a6" font-family="monospace" font-size="10" text-anchor="end" letter-spacing="2">DEPTH / 3D TYPOGRAPHY</text><text x="600" y="405" fill="#082238" fill-opacity="0.40" font-family="Inter,Arial,sans-serif" font-size="60" font-weight="800" text-anchor="middle" letter-spacing="5">KRISHNA SAI CHANNALLI</text><text x="600" y="400" fill="#082238" fill-opacity="0.38" font-family="Inter,Arial,sans-serif" font-size="60" font-weight="800" text-anchor="middle" letter-spacing="5">KRISHNA SAI CHANNALLI</text><text x="600" y="395" fill="#082238" fill-opacity="0.36" font-family="Inter,Arial,sans-serif" font-size="60" font-weight="800" text-anchor="middle" letter-spacing="5">KRISHNA SAI CHANNALLI</text><text x="600" y="390" fill="#082238" fill-opacity="0.35" font-family="Inter,Arial,sans-serif" font-size="60" font-weight="800" text-anchor="middle" letter-spacing="5">KRISHNA SAI CHANNALLI</text><text x="600" y="385" fill="#082238" fill-opacity="0.33" font-family="Inter,Arial,sans-serif" font-size="60" font-weight="800" text-anchor="middle" letter-spacing="5">KRISHNA SAI CHANNALLI</text><text x="600" y="380" fill="#082238" fill-opacity="0.31" font-family="Inter,Arial,sans-serif" font-size="60" font-weight="800" text-anchor="middle" letter-spacing="5">KRISHNA SAI CHANNALLI</text><text x="600" y="375" fill="#082238" fill-opacity="0.29" font-family="Inter,Arial,sans-serif" font-size="60" font-weight="800" text-anchor="middle" letter-spacing="5">KRISHNA SAI CHANNALLI</text><text x="600" y="370" fill="#082238" fill-opacity="0.27" font-family="Inter,Arial,sans-serif" font-size="60" font-weight="800" text-anchor="middle" letter-spacing="5">KRISHNA SAI CHANNALLI</text><text x="600" y="365" fill="#082238" fill-opacity="0.26" font-family="Inter,Arial,sans-serif" font-size="60" font-weight="800" text-anchor="middle" letter-spacing="5">KRISHNA SAI CHANNALLI</text><text x="600" y="360" fill="#082238" fill-opacity="0.24" font-family="Inter,Arial,sans-serif" font-size="60" font-weight="800" text-anchor="middle" letter-spacing="5">KRISHNA SAI CHANNALLI</text><text x="600" y="355" fill="url(#face)" font-family="Inter,Arial,sans-serif" font-size="60" font-weight="800" text-anchor="middle" letter-spacing="5">KRISHNA SAI CHANNALLI</text><text x="600" y="397" fill="#d9faff" font-family="Inter,Arial,sans-serif" font-size="19" text-anchor="middle" letter-spacing="4">COMPUTER SCIENCE ENGINEER</text><text x="600" y="431" fill="#76eaff" font-family="monospace" font-size="13" text-anchor="middle" letter-spacing="3">AI SYSTEMS · AGENTS · AUTOMATION</text></svg>